<?xml version="1.0" encoding="UTF-8"?>
<svg id="Warstwa_12" data-name="Warstwa 12" xmlns="http://www.w3.org/2000/svg" xmlns:xlink="http://www.w3.org/1999/xlink" viewBox="0 0 1080 1080">
  <defs>
    <style>
      .cls-1 {
        fill: url(#Gradient_bez_nazwy_207-3);
      }

      .cls-2 {
        fill: url(#Gradient_bez_nazwy_17-2);
      }

      .cls-3 {
        fill: url(#Gradient_bez_nazwy_17-3);
      }

      .cls-4 {
        fill: url(#Gradient_bez_nazwy_207-4);
      }

      .cls-5 {
        fill: url(#Gradient_bez_nazwy_207);
      }

      .cls-6 {
        fill: url(#Gradient_bez_nazwy_207-2);
      }

      .cls-7 {
        fill: url(#Gradient_bez_nazwy_17);
      }

      .cls-8 {
        fill: url(#Gradient_bez_nazwy_207-5);
      }
    </style>
    <linearGradient id="Gradient_bez_nazwy_17" data-name="Gradient bez nazwy 17" x1="569.43" y1="796.61" x2="604.87" y2="858" gradientUnits="userSpaceOnUse">
      <stop offset="0" stop-color="#92639e" stop-opacity="0"/>
      <stop offset="1" stop-color="#422c53"/>
    </linearGradient>
    <linearGradient id="Gradient_bez_nazwy_17-2" data-name="Gradient bez nazwy 17" x1="790.15" y1="625.28" x2="848.93" y2="727.09" xlink:href="#Gradient_bez_nazwy_17"/>
    <linearGradient id="Gradient_bez_nazwy_17-3" data-name="Gradient bez nazwy 17" x1="-471.27" y1="-997.36" x2="1181.94" y2="1866.08" xlink:href="#Gradient_bez_nazwy_17"/>
    <linearGradient id="Gradient_bez_nazwy_207" data-name="Gradient bez nazwy 207" x1="327.68" y1="547.87" x2="837.94" y2="547.87" gradientUnits="userSpaceOnUse">
      <stop offset="0" stop-color="#92639e"/>
      <stop offset="1" stop-color="#422c53"/>
    </linearGradient>
    <linearGradient id="Gradient_bez_nazwy_207-2" data-name="Gradient bez nazwy 207" x1="435.45" y1="552.99" x2="494.6" y2="552.99" xlink:href="#Gradient_bez_nazwy_207"/>
    <linearGradient id="Gradient_bez_nazwy_207-3" data-name="Gradient bez nazwy 207" x1="1282.52" y1="919.63" x2="1523.03" y2="919.63" gradientTransform="translate(-913.89 1146.09) rotate(-60)" xlink:href="#Gradient_bez_nazwy_207"/>
    <linearGradient id="Gradient_bez_nazwy_207-4" data-name="Gradient bez nazwy 207" x1="720.54" y1="656.44" x2="792.42" y2="656.44" xlink:href="#Gradient_bez_nazwy_207"/>
    <linearGradient id="Gradient_bez_nazwy_207-5" data-name="Gradient bez nazwy 207" x1="101.25" y1="949.54" x2="978.75" y2="949.54" xlink:href="#Gradient_bez_nazwy_207"/>
  </defs>
  <g>
    <path class="cls-7" d="M587.18,822.47l-5.62,2.95c2.42,2.82,4.88,4.86,6.81,6.03,1.91,1.17,3.42,1.53,4.24,1.28,1.64-.54.8-3.34-2.19-6.83-.9-1.07-2-2.23-3.24-3.42Z"/>
    <path class="cls-2" d="M819.94,667.46v22.65l11.51-6.53c-3.67-5.65-7.53-11.02-11.51-16.12Z"/>
    <path class="cls-3" d="M508.28,274.62c-2.63-4.75-5.83-8.97-9.23-12.47-3.41-3.51-7-6.41-10.58-8.8-3.58-2.4-7.15-4.35-10.66-5.98-7.02-3.26-13.84-5.34-20.43-7.01-6.6-1.64-13.03-2.74-19.36-3.55-12.65-1.6-24.93-1.99-37.02-2-12.08,0-24,.55-35.81,1.44-11.81.86-23.52,1.98-35.16,3.39-11.64,1.38-23.21,2.93-34.73,4.7-5.76.86-11.51,1.76-17.24,2.73-5.74.94-11.46,1.89-17.17,2.97l.11.99c11.62.29,23.21.93,34.76,1.74,11.55.83,23.06,1.85,34.49,3.19,22.84,2.71,45.5,6.35,67.06,11.75,10.75,2.72,21.21,5.96,30.79,9.86,4.77,1.96,9.32,4.08,13.4,6.39,4.07,2.29,7.68,4.79,10.35,7.26,2.66,2.45,4.25,4.9,4.39,6.33.11.72-.16,1.14-.49,1.3-.37.17-.77.09-1.17.11-.38,0-.74.14-1.17.56-.06.07-.08.06-.17.2l-.25.43c-.15.29-.33.56-.51.83-.34.54-.71,1.05-1.1,1.54-1.54,1.96-3.34,3.65-5.53,5.38-2.18,1.72-4.78,3.48-7.82,5.26-3.04,1.76-6.53,3.5-10.33,5.2-7.64,3.39-16.49,6.58-26.07,9.4-9.57,2.86-19.79,5.48-30.44,8.05l-33.24,7.84c-11.49,2.79-23.44,5.67-35.93,9.39-6.25,1.85-12.67,3.88-19.29,6.2-6.63,2.35-13.49,4.93-20.62,8.16-7.14,3.23-14.59,6.96-22.47,11.73-7.87,4.8-16.24,10.61-24.93,18.56-4.32,4-8.7,8.55-13.01,13.81-4.3,5.25-8.53,11.23-12.38,17.98-3.85,6.76-7.29,14.3-9.97,22.34-2.7,8.03-4.61,16.55-5.62,25.01-1.03,8.46-1.19,16.84-.69,24.74l.29,4.49.29,3.98c.27,2.67.52,5.34.89,8.03,1.43,10.75,3.84,21.64,7.24,32.25,3.51,10.56,7.95,20.8,13.07,30.41,5.1,9.62,11.02,18.46,17.19,26.64,1.55,2.04,3.12,4.01,4.7,5.99,1.58,1.91,3.19,3.88,4.8,5.71,1.62,1.84,3.27,3.69,4.92,5.42l2.48,2.64,2.49,2.54c6.67,6.74,13.43,12.89,20.2,18.45,13.54,11.16,27,20.37,40.15,28.49,26.26,16.24,51.23,28.68,75.26,40.08,24.03,11.26,47.22,21.05,69.54,30.37,14.37,5.99,28.38,11.76,41.91,17.46l-136.28-80.44v-121.25c-15.77-11.32-28.94-29.09-28.94-56.9,0-24.57,12.64-46.16,28.94-63.8v-34.25l173.26-98.32c0-.08,0-.17,0-.25l.1-3.5c.14-5.04-.26-10.41-1.47-15.78-1.16-5.36-3.17-10.67-5.78-15.43Z"/>
  </g>
  <g>
    <path class="cls-5" d="M582.83,250.57l-255.14,147.19v299.22l255.13,148.2,255.13-148.2v-298.7l-255.12-147.71ZM792.81,407.08l-209.98,123.24-210.01-123.7,209.98-121.13,210.01,121.59ZM357.92,432.93l209.78,123.56v244.93l-209.78-121.85v-246.64ZM597.93,801.43v-244.91l209.78-123.12v246.18l-209.78,121.85Z"/>
    <polygon class="cls-6" points="494.6 662.47 435.45 627.62 435.45 443.51 494.6 478.36 494.6 662.47"/>
    <polygon class="cls-1" points="494.6 478.36 732.4 338.62 673.24 303.78 435.45 443.51 494.6 478.36"/>
    <polygon class="cls-4" points="792.42 664.53 720.54 706.31 720.54 648.34 792.42 606.56 792.42 664.53"/>
  </g>
  <path class="cls-8" d="M181.49,991.64h-32.61l-5.14,26.68h-42.49l40.12-137.56h48.62l39.92,137.56h-43.08l-5.34-26.68ZM175.76,963.18l-10.67-53.96-10.48,53.96h21.15ZM327.05,892.52c10.47,7.84,15.71,19.34,15.71,34.49s-4.98,27.67-14.92,35.97c-9.95,8.3-23.36,12.45-40.22,12.45h-13.44v42.89h-40.71v-137.56h49.61c18.84,0,33.5,3.92,43.97,11.76ZM301.26,927.01c0-11.99-6.26-17.98-18.78-17.98h-8.3v37.75h9.49c11.73,0,17.59-6.59,17.59-19.76ZM402.45,969.3h-7.51v49.01h-40.71v-137.56h50.4c19.89,0,34.72,3.53,44.47,10.57,9.75,7.05,14.62,18.08,14.62,33.1,0,8.57-1.91,15.68-5.73,21.34-3.82,5.67-10.01,11-18.58,16.01l33.6,56.52h-45.06l-25.5-49.01ZM394.94,942.03h10.67c5.53,0,9.68-1.45,12.45-4.35,2.77-2.9,4.15-7.31,4.15-13.24,0-10.54-6.19-15.81-18.58-15.81h-8.7v33.4ZM563.72,909.03h-45.46v25.69h39.92v27.47h-39.92v27.67h48.62v28.46h-89.33v-137.56h90.32l-4.15,28.26ZM681.7,895.59l-17.98,21.15c-9.22-7.38-19.04-11.07-29.45-11.07-4.88,0-8.57.86-11.07,2.57-2.5,1.71-3.75,4.15-3.75,7.31,0,2.37.69,4.32,2.08,5.83,1.38,1.52,3.69,2.93,6.92,4.25,3.23,1.32,8.46,3.16,15.71,5.53,14.49,4.61,24.93,10.41,31.33,17.39,6.39,6.99,9.59,16.54,9.59,28.66,0,8.83-2.34,16.64-7.02,23.42-4.68,6.79-11.36,12.09-20.06,15.91-8.7,3.82-18.97,5.73-30.83,5.73s-22.8-1.91-32.02-5.73c-9.22-3.82-17-8.83-23.32-15.02l19.96-21.94c10.41,8.96,21.67,13.44,33.8,13.44,5.66,0,9.95-1.15,12.85-3.46,2.9-2.3,4.35-5.3,4.35-8.99,0-2.77-.63-5.07-1.88-6.92-1.25-1.84-3.46-3.56-6.62-5.14s-7.78-3.29-13.83-5.14c-15.94-5.01-27.08-11.03-33.4-18.08-6.32-7.05-9.49-15.84-9.49-26.38,0-8.56,2.3-16.01,6.92-22.33,4.61-6.33,10.97-11.2,19.07-14.63,8.1-3.42,17.23-5.14,27.37-5.14,20.95,0,37.88,6.26,50.79,18.78ZM768.66,962.78h-31.42v55.54h-40.71v-137.56h40.71v50.79h31.42v-50.79h40.71v137.56h-40.71v-55.54ZM906.02,876.81c-40.17,0-72.73,32.56-72.73,72.73s32.56,72.73,72.73,72.73,72.73-32.56,72.73-72.73-32.56-72.73-72.73-72.73ZM878.11,960.71c-6.39,0-11.57-5.18-11.57-11.57s5.18-11.57,11.57-11.57,11.57,5.18,11.57,11.57-5.18,11.57-11.57,11.57ZM894.31,997.72s13.88-35.95,13.88-48.58-13.88-48.58-13.88-48.58l53.21,48.58-53.21,48.58Z"/>
</svg>